HIERARCHY
ROOT Hips
{
	OFFSET -3.958830 18.904000 13.208200
	CHANNELS 6 Xposition Yposition Zposition Zrotation Yrotation Xrotation 
	JOINT LHipJoint
	{
		OFFSET 0.000000 0.000000 0.000000
		CHANNELS 3 Zrotation Yrotation Xrotation
		JOINT LeftUpLeg
		{
			OFFSET 1.800000 -1.400000 0.085000
			CHANNELS 3 Zrotation Yrotation Xrotation
			JOINT LeftLeg
			{
				OFFSET 2.215000 -6.000000 0.000000
				CHANNELS 3 Zrotation Yrotation Xrotation
				JOINT LeftFoot
				{
					OFFSET 2.500000 -6.900000 0.000000
					CHANNELS 3 Zrotation Yrotation Xrotation
					JOINT LeftToeBase
					{
						OFFSET 0.200000 -0.500000 1.950000
						CHANNELS 3 Zrotation Yrotation Xrotation
						End Site
						{
							OFFSET 0.000000 0.000000 0.000000
						}
					}
				}
			}
		}
	}
	JOINT RHipJoint
	{
		OFFSET 0.000000 0.000000 0.000000
		CHANNELS 3 Zrotation Yrotation Xrotation
		JOINT RightUpLeg
		{
			OFFSET -1.800000 -1.400000 0.085000
			CHANNELS 3 Zrotation Yrotation Xrotation
			JOINT RightLeg
			{
				OFFSET -2.215000 -6.000000 0.000000
				CHANNELS 3 Zrotation Yrotation Xrotation
				JOINT RightFoot
				{
					OFFSET -2.500000 -6.900000 0.000000
					CHANNELS 3 Zrotation Yrotation Xrotation
					JOINT RightToeBase
					{
						OFFSET -0.200000 -0.500000 1.950000
						CHANNELS 3 Zrotation Yrotation Xrotation
						End Site
						{
							OFFSET 0.000000 0.000000 0.000000
						}
					}
				}
			}
		}
	}
	JOINT LowerBack
	{
		OFFSET 0.000000 0.000000 0.000000
		CHANNELS 3 Zrotation Yrotation Xrotation
		JOINT Spine
		{
			OFFSET -0.087000 1.940000 -0.288900
			CHANNELS 3 Zrotation Yrotation Xrotation
			JOINT Spine1
			{
				OFFSET 0.000000 1.950000 0.060000
				CHANNELS 3 Zrotation Yrotation Xrotation
				JOINT Neck
				{
					OFFSET 0.000000 0.000000 0.000000
					CHANNELS 3 Zrotation Yrotation Xrotation
					JOINT Neck1
					{
						OFFSET 0.000000 1.600000 0.340000
						CHANNELS 3 Zrotation Yrotation Xrotation
						JOINT Head
						{
							OFFSET 0.000000 1.667000 -0.240000
							CHANNELS 3 Zrotation Yrotation Xrotation
							End Site
							{
								OFFSET 0.000000 0.000000 0.000000
							}
						}
					}
				}
				JOINT LeftShoulder
				{
					OFFSET 0.000000 0.000000 0.000000
					CHANNELS 3 Zrotation Yrotation Xrotation
					JOINT LeftArm
					{
						OFFSET 2.700000 1.550000 -0.730000
						CHANNELS 3 Zrotation Yrotation Xrotation
						JOINT LeftForeArm
						{
							OFFSET 5.450000 0.000000 0.000000
							CHANNELS 3 Zrotation Yrotation Xrotation
							JOINT LeftHand
							{
								OFFSET 3.450000 0.000000 0.000000
								CHANNELS 3 Zrotation Yrotation Xrotation
								JOINT LeftHandIndex1
								{
									OFFSET 0.750000 0.000000 0.000000
									CHANNELS 3 Zrotation Yrotation Xrotation
									End Site
									{
										OFFSET 0.000000 0.000000 0.000000
									}
								}
							}
						}
					}
				}
				JOINT RightShoulder
				{
					OFFSET 0.000000 0.000000 0.000000
					CHANNELS 3 Zrotation Yrotation Xrotation
					JOINT RightArm
					{
						OFFSET -2.700000 1.550000 -0.730000
						CHANNELS 3 Zrotation Yrotation Xrotation
						JOINT RightForeArm
						{
							OFFSET -5.450000 0.000000 0.000000
							CHANNELS 3 Zrotation Yrotation Xrotation
							JOINT RightHand
							{
								OFFSET -3.450000 0.000000 0.000000
								CHANNELS 3 Zrotation Yrotation Xrotation
								JOINT RightHandIndex1
								{
									OFFSET -0.750000 0.000000 0.000000
									CHANNELS 3 Zrotation Yrotation Xrotation
									End Site
									{
										OFFSET 0.000000 0.000000 0.000000
									}
								}
							}
						}
					}
				}
			}
		}
	}
}
MOTION
Frames: 8
Frame Time: 0.016667
-0.175600 17.778400 -2.906430 2.204239 5.221399 -5.642746 -14.616851 12.056325 3.395227 4.801730 -3.477929 -27.784586 -5.917431 3.543268 8.057656 -1.082799 2.840633 3.636227 0.907610 0.677530 0.463110 18.861963 -11.746970 2.557834 2.382092 1.980508 -11.373577 -2.947195 -4.634604 33.734765 -0.692290 -5.225937 2.548004 0.590130 0.366070 0.272190 -5.280805 0.958390 -7.544216 20.560054 -4.227700 24.554814 -14.479082 2.201197 17.203108 0.012162 -3.262828 -7.069467 -8.674626 -4.001686 33.272940 3.373070 -8.341820 -16.613380 13.525560 -33.390326 -4.893219 30.571559 -50.178500 -16.107464 23.828701 -25.954387 -5.634417 -3.877328 3.244737 0.389670 0.143720 -0.041710 0.417230 -14.899230 32.987025 3.088640 -20.815946 23.936975 -10.836648 -32.020541 34.395759 -8.615580 1.879651 -1.938886 -0.135080 0.461580 -0.125450 -0.073890 
-0.142070 17.820900 -2.905070 2.172054 6.610944 -5.924761 -14.621887 12.133718 3.335868 4.144742 -3.812757 -28.463211 -5.020767 4.097042 13.287329 -1.052763 3.075388 3.544451 0.855730 0.606350 0.439230 18.860962 -11.713070 2.652465 3.430480 2.669394 -13.585639 -4.900295 -4.179900 37.529398 -0.752607 -5.512256 2.454874 0.536710 0.369800 0.252600 -5.307840 0.880097 -7.539154 21.713073 -5.072572 24.992037 -15.308427 1.587978 16.593725 0.294682 -3.704233 -7.095514 -10.049282 -4.232759 34.490621 3.934710 -9.231050 -17.039530 11.060542 -32.589857 -4.343221 22.558230 -50.720196 -12.792932 29.726494 -33.930382 -8.947167 -3.831907 3.118783 0.426730 0.119480 -0.038830 0.402010 -13.047202 32.151171 3.911713 -15.844752 22.737291 -11.335609 -39.419225 42.436437 -13.291655 1.722776 -1.777018 -0.156160 0.483180 -0.100040 -0.078410 
-0.118690 17.850320 -2.879490 2.622429 7.477310 -5.943515 -14.626748 12.124870 3.275571 3.228944 -4.159918 -28.564466 -4.173865 4.605334 18.113303 -0.946609 3.398990 3.405723 0.846160 0.592800 0.424640 18.874712 -11.602907 2.812558 3.881674 4.098985 -17.128391 -6.081539 -3.997633 43.212209 -0.884383 -6.132180 2.240401 0.495750 0.341070 0.254000 -5.348190 0.864220 -7.601289 22.278332 -5.091158 24.914248 -16.180229 1.512558 15.905362 0.452731 -3.537664 -7.070304 -10.619562 -4.397763 36.538148 4.880690 -9.947350 -16.804000 9.157875 -31.399309 -4.333934 13.164672 -51.804575 -8.148055 33.061755 -42.801857 -12.282758 -3.723461 3.042787 0.428910 0.090020 -0.023930 0.403110 -11.533859 30.616197 4.852650 -8.113838 21.807962 -11.384947 -49.057097 50.703837 -20.896484 1.516897 -1.540868 -0.123220 0.443700 -0.112390 -0.066660 
-0.109450 17.880780 -2.836380 3.173361 8.942541 -5.678501 -14.640074 12.011459 3.242242 2.589424 -4.571409 -28.669584 -3.997829 5.332381 22.780076 -0.818790 3.945455 3.193408 0.795820 0.530940 0.377160 18.906556 -11.370246 3.041265 4.090097 5.831638 -21.388148 -6.925620 -4.059169 49.630394 -1.055311 -6.963861 1.965113 0.435180 0.337210 0.242630 -5.406866 0.824844 -7.738633 22.615861 -5.152748 24.532118 -17.252150 1.217468 14.856634 0.512187 -3.507132 -7.105672 -11.499995 -4.413352 38.727153 6.569470 -11.011250 -16.646450 6.983040 -29.859889 -4.259549 3.206509 -52.096387 -2.892882 36.003041 -52.359393 -16.333036 -3.609329 2.886629 0.444380 0.062160 -0.025820 0.393790 -9.497677 28.728125 5.767276 0.252014 21.235589 -11.156383 -60.608357 59.646270 -31.903567 1.219886 -0.984469 -0.117930 0.425070 -0.093890 -0.055580 
-0.106200 17.905060 -2.809130 3.616281 12.420899 -6.466977 -14.692637 11.968395 3.185249 1.329195 -5.000590 -27.746015 -3.322395 5.785710 26.886530 -0.724416 4.488913 2.987654 0.793540 0.510360 0.389480 18.898060 -11.125973 3.222236 3.866519 6.888848 -24.622858 -6.769941 -4.996141 55.722921 -1.277068 -7.915647 1.646815 0.415060 0.314150 0.246790 -5.396469 0.606608 -7.869636 22.396577 -5.699139 25.069908 -17.224800 0.362365 14.755345 0.520457 -2.917568 -6.844606 -11.299109 -4.965446 40.439272 7.605760 -11.758560 -17.377740 5.896441 -27.965655 -5.041890 -6.832955 -52.596555 2.237908 36.379273 -61.435617 -19.851826 -3.501267 2.734710 0.476390 0.036250 -0.008660 0.381320 -8.298247 25.920056 7.051539 8.399807 19.563552 -10.508106 -77.207720 66.401950 -48.471066 0.849651 0.091941 -0.115910 0.413040 -0.092280 -0.066440 
-0.107990 17.914630 -2.786480 3.213534 17.624215 -7.810416 -14.774532 11.988522 3.100557 0.506798 -5.402639 -26.461340 -2.274644 5.961839 30.471111 -0.645739 5.027039 2.804523 0.752510 0.440950 0.389910 18.861635 -10.838510 3.370231 3.686938 7.327923 -27.617695 -5.728786 -7.239725 62.263683 -1.553681 -9.082838 1.293382 0.373900 0.308790 0.239140 -5.359319 0.186397 -7.987550 22.460079 -7.502470 25.804914 -17.203756 -1.480612 15.126157 0.631691 -2.266213 -7.391193 -11.089182 -5.359820 42.059856 8.025750 -12.143740 -17.850050 4.823099 -26.313210 -5.862088 -15.506441 -51.776856 5.933818 28.825188 -71.480807 -19.155294 -3.420465 2.677449 0.529180 0.021730 0.001400 0.361470 -7.199537 23.091056 9.872176 16.167222 18.264935 -6.471618 -98.429283 66.545104 -74.063820 1.146035 1.089605 -0.147890 0.427420 -0.070850 -0.091880 
-0.121870 17.909950 -2.753520 3.026220 22.254906 -9.876260 -14.860198 12.060660 2.947564 0.057706 -5.501167 -24.025747 -1.336039 6.155621 33.833665 -0.478487 5.506554 2.614362 0.787100 0.491330 0.430380 18.800953 -10.630940 3.517082 3.347740 7.634182 -29.732540 -4.733258 -9.902666 69.218788 -1.925176 -10.371635 0.916136 0.356160 0.224010 0.240610 -5.295571 -0.119732 -8.100839 21.770261 -9.000936 27.539332 -16.720994 -2.827050 15.911367 1.065088 -1.975133 -8.105271 -11.075644 -5.558292 43.904748 8.996150 -12.186800 -19.841370 2.536591 -25.083178 -5.219628 -21.192012 -50.046718 6.868088 9.094801 -79.803130 -8.093327 -3.323015 2.984102 0.565370 -0.046830 0.074010 0.352340 -5.407068 21.211193 11.493097 22.476993 16.460923 -4.300801 -112.981841 67.502726 -103.005858 1.983794 -0.301403 -0.095530 0.390150 -0.112090 -0.090310 
-0.135900 17.882230 -2.709620 2.895099 25.648652 -12.142881 -14.931146 12.135777 2.746264 -0.065417 -5.332377 -21.203366 -0.253067 6.267736 36.654197 -0.363457 5.992376 2.448680 0.779070 0.464360 0.441870 18.749315 -10.439276 3.720627 3.491809 8.281936 -31.323170 -4.302438 -12.503895 76.613195 -2.315037 -11.712708 0.562948 0.322010 0.185850 0.225950 -5.244530 -0.324709 -8.240663 21.012605 -9.940818 29.924376 -15.837697 -3.563152 16.029528 1.526675 -2.754863 -8.646560 -12.541037 -5.041505 45.600957 10.705790 -12.542490 -21.950880 -0.716677 -23.973294 -2.888089 -24.924850 -48.089742 7.695803 -42.440084 -84.765115 34.236550 -3.349704 3.462905 0.640250 -0.109660 0.116270 0.340220 -2.662191 20.695569 10.699267 27.164202 12.856922 -9.376385 -145.735906 73.614373 -150.927684 1.712105 -1.964341 -0.104070 0.400050 -0.112950 -0.103150 
